<svg width="216" height="272" viewBox="0 0 216 272" fill="none" xmlns="http://www.w3.org/2000/svg">
<path d="M13.6757 0H82.6735H147.383L215.991 71.8474C215.991 71.8474 216.011 253.292 215.991 258.569C215.972 263.846 210.924 271.901 203.127 271.964C195.331 272.028 18.7433 271.992 13.6757 271.964C8.60816 271.936 0.111856 264.658 0.0321123 258.569C-0.0476319 252.48 0.0482784 17.8606 0.0321123 13.3953C0.0159462 8.92991 6.26911 -4.21523e-06 13.6757 0Z" fill="white"/>
<path d="M52 123V113H164V123H52Z" fill="black"/>
<path d="M52 148V138H164V148H52Z" fill="black"/>
<path d="M52 173V163H164V173H52Z" fill="black"/>
<path d="M52 198V188H128V198H52Z" fill="black"/>
</svg>
