<svg width="8" height="6" viewBox="0 0 8 6" fill="#ddd" xmlns="http://www.w3.org/2000/svg">
<path d="M3.1601 0.163981C3.32223 0.323051 3.41827 0.515102 3.22206 0.742298C3.02584 0.969494 1.74528 2.27071 1.74528 2.27071C1.74528 2.27071 6.53706 2.23973 6.84687 2.27071C7.15669 2.30168 7.19855 2.48417 7.20832 2.70444C7.21865 2.93733 7.20832 3.17949 6.84687 3.17949H1.74528L3.22206 4.65626C3.40795 4.84214 3.36563 5.06024 3.22206 5.23458C3.06236 5.4285 2.79865 5.50308 2.58178 5.29654C2.36491 5.09001 0 2.70444 0 2.70444C0 2.70444 2.37524 0.308563 2.58178 0.112346C2.78832 -0.0838713 2.99824 0.00518791 3.1601 0.163981Z" />
</svg>
