<svg width="10" height="8" viewBox="0 0 10 8" fill="none" xmlns="http://www.w3.org/2000/svg">
<path d="M9.77565e-06 0.547975C2.47326e-05 0.233229 0.274003 0 0.598724 0C1.54246 0.0710301 3.42993 0.263836 4.60706 0.984326C4.75928 1.09595 4.73898 1.20758 4.73898 1.20758C4.73898 1.20758 4.74914 7.43826 4.73898 7.52958C4.72883 7.72239 4.50558 7.85431 4.33307 7.76298C3.11534 7.15412 1.38009 6.99176 0.52769 6.96131C0.243549 6.93693 1.03601e-05 6.70762 9.77565e-06 6.41334V0.547975Z" fill="#3361CC"/>
<path d="M9.99999 0.547975C9.99998 0.233229 9.726 0 9.40128 0C8.45754 0.0710301 6.57007 0.263836 5.39294 0.984326C5.24072 1.09595 5.26102 1.20758 5.26102 1.20758C5.26102 1.20758 5.25086 7.43826 5.26102 7.52958C5.27117 7.72239 5.49442 7.85431 5.66693 7.76298C6.88466 7.15412 8.61991 6.99176 9.47231 6.96131C9.75645 6.93693 9.99999 6.70762 9.99999 6.41334V0.547975Z" fill="#3361CC"/>
</svg>
